<svg aria-hidden="true" style="position: absolute; width: 0; height: 0; overflow: hidden;" version="1.1" xmlns="http://www.w3.org/2000/svg" xmlns:xlink="http://www.w3.org/1999/xlink">
<defs>
<symbol id="icon-linkedin" viewBox="0 0 40 40">
<path d="M39.99 40v-0.002h0.010v-14.67c0-7.177-1.545-12.705-9.935-12.705-4.033 0-6.74 2.213-7.845 4.312h-0.117v-3.642h-7.955v26.705h8.283v-13.223c0-3.482 0.66-6.848 4.972-6.848 4.249 0 4.312 3.973 4.312 7.072v13.002h8.275z"></path>
<path d="M0.66 13.295h8.293v26.705h-8.293v-26.705z"></path>
<path d="M4.803-0c-2.652 0-4.803 2.152-4.803 4.803s2.152 4.848 4.803 4.848c2.652 0 4.803-2.197 4.803-4.848-0.002-2.652-2.153-4.803-4.803-4.803v0z"></path>
</symbol>
<symbol id="icon-facebook" viewBox="0 0 40 40">
<path d="M26.662 6.641h3.652v-6.36c-0.63-0.087-2.797-0.282-5.32-0.282-5.265 0-8.872 3.312-8.872 9.398v5.602h-5.81v7.11h5.81v17.89h7.123v-17.888h5.575l0.885-7.11h-6.462v-4.898c0.002-2.055 0.555-3.462 3.418-3.462z"></path>
</symbol>
<symbol id="icon-twitter" viewBox="0 0 40 40">
<path d="M40 7.597c-1.488 0.652-3.072 1.085-4.725 1.295 1.7-1.015 2.998-2.61 3.608-4.532-1.585 0.945-3.335 1.612-5.2 1.985-1.505-1.603-3.65-2.595-5.99-2.595-4.54 0-8.195 3.685-8.195 8.203 0 0.65 0.055 1.275 0.19 1.87-6.817-0.332-12.85-3.6-16.902-8.578-0.707 1.228-1.123 2.632-1.123 4.145 0 2.84 1.462 5.357 3.642 6.815-1.317-0.025-2.61-0.408-3.705-1.010 0 0.025 0 0.058 0 0.090 0 3.985 2.842 7.295 6.57 8.057-0.667 0.183-1.395 0.27-2.15 0.27-0.525 0-1.055-0.030-1.553-0.14 1.062 3.248 4.078 5.635 7.662 5.713-2.79 2.183-6.332 3.497-10.168 3.497-0.673 0-1.318-0.030-1.963-0.112 3.633 2.342 7.938 3.68 12.58 3.68 15.090 0 23.34-12.5 23.34-23.335 0-0.362-0.013-0.713-0.030-1.060 1.627-1.155 2.995-2.598 4.11-4.258z"></path>
</symbol>
<symbol id="icon-instagram" viewBox="0 0 40 40">
<path d="M39.961 11.76c-0.094-2.125-0.438-3.586-0.93-4.853-0.508-1.344-1.289-2.547-2.313-3.547-1-1.016-2.211-1.805-3.54-2.305-1.274-0.492-2.727-0.836-4.853-0.93-2.141-0.102-2.821-0.125-8.252-0.125s-6.111 0.024-8.244 0.117c-2.125 0.094-3.587 0.438-4.852 0.93-1.344 0.508-2.548 1.289-3.548 2.313-1.016 1-1.805 2.211-2.305 3.54-0.492 1.274-0.836 2.727-0.93 4.852-0.102 2.141-0.125 2.821-0.125 8.252s0.024 6.11 0.117 8.244c0.094 2.125 0.438 3.586 0.93 4.853 0.508 1.344 1.297 2.547 2.313 3.547 1 1.016 2.211 1.805 3.54 2.305 1.274 0.492 2.727 0.836 4.853 0.93 2.133 0.094 2.813 0.117 8.244 0.117s6.111-0.023 8.244-0.117c2.125-0.094 3.586-0.437 4.852-0.93 2.688-1.039 4.814-3.164 5.853-5.852 0.492-1.274 0.836-2.727 0.93-4.852 0.094-2.134 0.117-2.813 0.117-8.244s-0.008-6.111-0.102-8.244zM36.359 28.091c-0.086 1.954-0.414 3.009-0.688 3.712-0.672 1.742-2.055 3.126-3.798 3.798-0.703 0.274-1.766 0.602-3.712 0.688-2.11 0.094-2.742 0.117-8.079 0.117s-5.978-0.023-8.080-0.117c-1.954-0.086-3.008-0.414-3.712-0.688-0.867-0.321-1.656-0.829-2.297-1.492-0.664-0.649-1.172-1.43-1.493-2.297-0.274-0.703-0.602-1.766-0.687-3.712-0.094-2.11-0.117-2.743-0.117-8.080s0.023-5.978 0.117-8.080c0.086-1.954 0.414-3.008 0.687-3.712 0.321-0.867 0.828-1.656 1.501-2.298 0.648-0.664 1.43-1.172 2.297-1.492 0.703-0.274 1.766-0.602 3.712-0.688 2.11-0.094 2.743-0.117 8.080-0.117 5.345 0 5.978 0.024 8.080 0.117 1.954 0.086 3.009 0.414 3.712 0.688 0.867 0.32 1.656 0.828 2.297 1.492 0.664 0.649 1.172 1.43 1.492 2.298 0.274 0.703 0.601 1.766 0.688 3.712 0.094 2.11 0.117 2.743 0.117 8.080s-0.024 5.962-0.117 8.072z"></path>
<path d="M20.074 9.728c-5.673 0-10.275 4.602-10.275 10.275s4.603 10.275 10.275 10.275c5.673 0 10.275-4.602 10.275-10.275s-4.602-10.275-10.275-10.275zM20.074 26.669c-3.68 0-6.665-2.985-6.665-6.665s2.985-6.665 6.665-6.665c3.681 0 6.665 2.985 6.665 6.665s-2.985 6.665-6.665 6.665z"></path>
<path d="M33.155 9.322c0 1.325-1.074 2.399-2.399 2.399s-2.399-1.074-2.399-2.399c0-1.325 1.074-2.399 2.399-2.399s2.399 1.074 2.399 2.399z"></path>
</symbol>
<symbol id="icon-Logo-6" viewBox="0 0 74 40">
<path d="M38.236 19.602c-0.273-0.352-0.438-0.8-0.438-1.287 0-0.048 0.002-0.095 0.005-0.142l-0 0.006v-2.063c0-0.632 0.144-1.113 0.431-1.441s0.78-0.493 1.479-0.491c0.657 0 1.123 0.14 1.399 0.42 0.3 0.357 0.446 0.794 0.413 1.234v0.486h-1.174v-0.491c0.004-0.161-0.007-0.321-0.034-0.481-0.020-0.116-0.081-0.216-0.166-0.285l-0.001-0.001c-0.105-0.071-0.235-0.113-0.375-0.113-0.018 0-0.036 0.001-0.053 0.002l0.002-0c-0.015-0.001-0.033-0.002-0.052-0.002-0.148 0-0.285 0.044-0.399 0.121l0.003-0.002c-0.097 0.078-0.166 0.186-0.194 0.311l-0.001 0.004c-0.030 0.141-0.047 0.304-0.047 0.47 0 0.014 0 0.028 0 0.043l-0-0.002v2.504c-0.002 0.028-0.003 0.061-0.003 0.094 0 0.223 0.057 0.433 0.158 0.615l-0.003-0.007c0.061 0.076 0.14 0.134 0.231 0.169l0.004 0.001c0.095 0.036 0.2 0.050 0.304 0.039 0.15 0.011 0.3-0.030 0.416-0.114 0.091-0.076 0.154-0.181 0.175-0.301l0-0.003c0.027-0.166 0.040-0.334 0.036-0.501v-0.508h1.175v0.464c0.002 0.036 0.004 0.078 0.004 0.12 0 0.446-0.155 0.857-0.414 1.18l0.003-0.004c-0.269 0.306-0.729 0.459-1.405 0.459s-1.186-0.164-1.476-0.504zM43.126 19.624c-0.296-0.321-0.445-0.789-0.445-1.409v-2.17c0-0.613 0.149-1.076 0.445-1.391s0.793-0.471 1.489-0.47c0.691 0 1.184 0.157 1.481 0.47 0.297 0.315 0.448 0.779 0.448 1.391v2.17c0 0.613-0.151 1.083-0.452 1.406s-0.793 0.484-1.476 0.484-1.189-0.164-1.489-0.482zM45.161 19.103c0.106-0.201 0.155-0.421 0.141-0.642v-2.657c0.001-0.021 0.002-0.046 0.002-0.070 0-0.205-0.052-0.397-0.144-0.565l0.003 0.006c-0.062-0.077-0.143-0.137-0.235-0.172l-0.004-0.001c-0.068-0.027-0.147-0.042-0.23-0.042-0.028 0-0.056 0.002-0.083 0.005l0.003-0c-0.023-0.003-0.051-0.005-0.078-0.005-0.084 0-0.164 0.016-0.237 0.044l0.004-0.002c-0.097 0.036-0.179 0.096-0.241 0.171l-0.001 0.001c-0.107 0.196-0.156 0.413-0.141 0.629v2.67c-0.015 0.221 0.034 0.441 0.141 0.642 0.069 0.067 0.153 0.121 0.248 0.159 0.089 0.036 0.193 0.057 0.302 0.057s0.212-0.021 0.307-0.059l-0.006 0.002c0.095-0.038 0.179-0.092 0.248-0.159v-0.013zM47.956 14.247h1.264l0.951 4.004 0.972-4.004h1.231l0.124 5.779h-0.91l-0.097-4.016-0.939 4.016h-0.729l-0.973-4.031-0.090 4.031h-0.919l0.114-5.779zM53.916 14.247h1.97c1.134 0 1.702 0.547 1.702 1.641 0 1.048-0.598 1.571-1.793 1.57h-0.671v2.569h-1.216l0.007-5.779zM55.599 16.717c0.12 0.013 0.242 0.004 0.357-0.029 0.116-0.031 0.221-0.084 0.311-0.154 0.113-0.153 0.18-0.345 0.18-0.552 0-0.035-0.002-0.070-0.006-0.104l0 0.004c0.001-0.020 0.001-0.043 0.001-0.067 0-0.163-0.022-0.321-0.062-0.471l0.003 0.013c-0.019-0.061-0.050-0.114-0.090-0.159l0 0c-0.043-0.048-0.094-0.087-0.151-0.115l-0.003-0.001c-0.141-0.059-0.305-0.094-0.477-0.094-0.023 0-0.046 0.001-0.069 0.002l0.003-0h-0.471v1.727h0.471zM59.342 14.247h1.306l1.34 5.779h-1.134l-0.264-1.332h-1.165l-0.273 1.333h-1.15l1.34-5.779zM60.459 18.024l-0.455-2.426-0.455 2.426h0.909zM63.070 14.247h0.851l1.629 3.296v-3.296h1.010v5.779h-0.81l-1.639-3.441v3.441h-1.043l0.002-5.779zM68.924 17.823l-1.354-3.568h1.141l0.826 2.291 0.776-2.291h1.116l-1.338 3.568v2.203h-1.167v-2.203zM40.113 22.553v0.302h-0.993v2.348h-0.415v-2.348h-0.998v-0.302h2.405zM43.223 25.203h-0.321c-0.002 0-0.005 0-0.008 0-0.030 0-0.058-0.009-0.082-0.026l0 0c-0.023-0.015-0.042-0.035-0.053-0.060l-0-0.001-0.287-0.629h-1.376l-0.287 0.629c-0.009 0.028-0.024 0.052-0.043 0.071v0c-0.023 0.016-0.052 0.025-0.083 0.025-0.003 0-0.006-0-0.008-0h-0.321l1.216-2.65h0.423l1.231 2.639zM41.209 24.219h1.148l-0.486-1.079c-0.031-0.068-0.062-0.151-0.087-0.236l-0.003-0.014c-0.017 0.050-0.031 0.099-0.046 0.141l-0.044 0.111-0.481 1.076zM45.319 24.943c0.076 0.004 0.153 0.004 0.229 0 0.066-0.006 0.131-0.016 0.195-0.031 0.070-0.015 0.128-0.031 0.186-0.051l-0.011 0.003c0.054-0.019 0.107-0.043 0.163-0.066v-0.596h-0.486c-0.002 0-0.004 0-0.006 0-0.011 0-0.021-0.002-0.030-0.005l0.001 0c-0.012-0.004-0.022-0.009-0.030-0.017l0 0c-0.008-0.006-0.014-0.013-0.018-0.021l-0-0c-0.004-0.007-0.006-0.015-0.006-0.024 0-0.001 0-0.002 0-0.003v0-0.204h0.944v1.016c-0.148 0.092-0.318 0.167-0.5 0.214l-0.013 0.003c-0.1 0.025-0.201 0.043-0.304 0.054-0.106 0.011-0.23 0.017-0.355 0.017-0 0-0 0-0 0v0c-0.004 0-0.009 0-0.014 0-0.214 0-0.42-0.036-0.612-0.103l0.013 0.004c-0.187-0.065-0.349-0.159-0.488-0.278l0.002 0.002c-0.13-0.115-0.236-0.255-0.311-0.412l-0.003-0.008c-0.070-0.157-0.112-0.339-0.112-0.532 0-0.006 0-0.013 0-0.019v0.001c-0-0.005-0-0.011-0-0.016 0-0.194 0.040-0.379 0.113-0.546l-0.003 0.009c0.070-0.157 0.177-0.3 0.314-0.42 0.139-0.119 0.304-0.213 0.486-0.275 0.209-0.068 0.43-0.101 0.652-0.099 0.114 0 0.226 0.007 0.338 0.023 0.099 0.014 0.196 0.036 0.289 0.067 0.086 0.028 0.167 0.063 0.243 0.105s0.146 0.088 0.212 0.139l-0.116 0.164c-0.010 0.015-0.024 0.027-0.039 0.035l-0.001 0c-0.016 0.009-0.035 0.014-0.055 0.014h-0c-0.028-0.001-0.054-0.009-0.076-0.022l0.001 0c-0.049-0.023-0.088-0.044-0.125-0.067l0.007 0.004c-0.046-0.025-0.1-0.049-0.156-0.069l-0.008-0.002c-0.062-0.022-0.137-0.043-0.214-0.057l-0.009-0.001c-0.088-0.015-0.189-0.023-0.292-0.023-0.006 0-0.011 0-0.017 0h0.001c-0.004-0-0.009-0-0.014-0-0.163 0-0.319 0.027-0.465 0.077l0.010-0.003c-0.138 0.048-0.257 0.12-0.358 0.211l0.001-0.001c-0.101 0.095-0.179 0.207-0.227 0.329-0.052 0.131-0.082 0.283-0.082 0.442s0.030 0.311 0.085 0.451l-0.003-0.008c0.054 0.124 0.136 0.238 0.244 0.334 0.1 0.091 0.221 0.162 0.355 0.21 0.155 0.046 0.319 0.064 0.481 0.052zM49.196 24.901h1.329v0.302h-1.734v-2.65h0.416l-0.010 2.348zM51.905 25.203h-0.416v-2.65h0.416v2.65zM53.451 22.565c0.025 0.012 0.047 0.029 0.064 0.048l0 0 1.777 1.998c-0.001-0.014-0.002-0.031-0.002-0.047s0.001-0.033 0.002-0.049l-0 0.002v-1.975h0.362v2.661h-0.209c-0.004 0-0.009 0-0.013 0-0.028 0-0.054-0.006-0.078-0.016l0.001 0.001c-0.026-0.013-0.047-0.030-0.066-0.050l-0-0-1.775-1.996v2.061h-0.348v-2.651h0.216c0.024 0 0.047 0.004 0.069 0.012zM58.717 22.553v0.291h-1.474v0.875h1.194v0.281h-1.194v0.904h1.474v0.291h-1.902v-2.644h1.902zM15.139 6.185l18.466 4.524v15.854l-18.466-4.521v-15.857zM13.955 4.834v17.977l20.832 5.106v-17.975l-20.832-5.108z"></path>
<path d="M25.12 36.262l-20.834-5.11v-17.976l20.834 5.107v17.979z"></path>
<path d="M14.3 5.981l18.225 4.467-7.75 6.69-18.228-4.47 7.753-6.687zM13.955 4.834l-9.669 8.343 20.834 5.108 9.667-8.343-20.832-5.108zM26.293 35.25l8.494-7.331-8.495-2.084v9.416z"></path>
</symbol>
<symbol id="icon-Logo-5" viewBox="0 0 74 40">
<path d="M19.137 31.695c0.175 0.196 0.269 0.44 0.264 0.691 0.009 0.164-0.024 0.327-0.094 0.479s-0.179 0.286-0.315 0.394c-0.299 0.202-0.667 0.323-1.064 0.323-0.044 0-0.088-0.001-0.131-0.004l0.006 0h-2.089v-4.38h2.046c0.036-0.002 0.078-0.004 0.121-0.004 0.376 0 0.727 0.11 1.021 0.299l-0.008-0.005c0.131 0.1 0.236 0.226 0.306 0.368s0.1 0.297 0.091 0.452c0.012 0.241-0.072 0.479-0.238 0.669-0.161 0.173-0.375 0.295-0.615 0.342l-0.007 0.001c0.277 0.046 0.527 0.179 0.706 0.374zM16.686 31.034h0.875c0.199 0.014 0.396-0.038 0.556-0.145 0.064-0.052 0.115-0.117 0.149-0.191l0.001-0.003c0.025-0.056 0.040-0.121 0.040-0.19 0-0.016-0.001-0.031-0.002-0.046l0 0.002c0.001-0.011 0.001-0.024 0.001-0.037 0-0.071-0.015-0.138-0.042-0.199l0.001 0.003c-0.034-0.078-0.084-0.143-0.145-0.195l-0.001-0.001c-0.141-0.094-0.315-0.15-0.502-0.15-0.025 0-0.050 0.001-0.074 0.003l0.003-0h-0.861v1.149zM18.203 32.714c0.068-0.053 0.123-0.12 0.16-0.197l0.001-0.003c0.030-0.062 0.047-0.134 0.047-0.21 0-0.012-0-0.024-0.001-0.035l0 0.002c0.001-0.009 0.001-0.020 0.001-0.031 0-0.079-0.018-0.153-0.050-0.219l0.001 0.003c-0.039-0.081-0.095-0.149-0.163-0.201l-0.001-0.001c-0.151-0.1-0.336-0.16-0.536-0.16-0.021 0-0.041 0.001-0.061 0.002l0.003-0h-0.917v1.205h0.929c0.209 0.011 0.416-0.043 0.587-0.152zM23.321 33.579l-1.139-1.712h-0.429v1.711h-0.979v-4.38h1.854c0.040-0.003 0.087-0.005 0.134-0.005 0.435 0 0.837 0.141 1.163 0.381l-0.005-0.004c0.259 0.238 0.416 0.551 0.441 0.884s-0.082 0.661-0.303 0.929c-0.229 0.236-0.541 0.394-0.884 0.446l1.212 1.75h-1.064zM21.754 31.269h0.801c0.556 0 0.834-0.221 0.834-0.664 0.001-0.011 0.001-0.023 0.001-0.036 0-0.083-0.017-0.162-0.048-0.233l0.001 0.004c-0.038-0.089-0.092-0.165-0.159-0.227l-0-0c-0.152-0.113-0.344-0.18-0.552-0.18-0.028 0-0.055 0.001-0.082 0.004l0.004-0h-0.811l0.010 1.333zM28.674 32.696h-1.952l-0.345 0.881h-1.026l1.793-4.331h1.11l1.785 4.331h-1.027l-0.337-0.881zM28.412 32.034l-0.714-1.849-0.713 1.849h1.426zM35.374 33.579h-0.971l-2.18-2.979v2.979h-0.97v-4.381h0.97l2.179 2.996v-2.996h0.972v4.38zM40.921 32.529c-0.212 0.338-0.511 0.603-0.867 0.768l-0.012 0.005c-0.423 0.193-0.893 0.287-1.366 0.276h-1.731v-4.38h1.731c0.024-0.001 0.052-0.001 0.080-0.001 0.465 0 0.907 0.099 1.306 0.278l-0.020-0.008c0.372 0.169 0.679 0.436 0.879 0.764 0.2 0.356 0.304 0.75 0.304 1.149-0.001 0.422-0.114 0.818-0.31 1.16l0.006-0.011zM39.809 32.425c0.263-0.27 0.427-0.638 0.43-1.045v-0.001c-0.003-0.407-0.167-0.775-0.43-1.045l0 0c-0.302-0.235-0.687-0.376-1.105-0.376-0.039 0-0.078 0.001-0.117 0.004l0.005-0h-0.675v2.836h0.675c0.034 0.002 0.073 0.004 0.113 0.004 0.418 0 0.802-0.141 1.109-0.379l-0.004 0.003zM29.282 4.834s12.547 4.264 12.281 10.436v10.439s-12.539-4.267-12.278-10.439l-0.004-10.436zM52.742 23.264c2.369-1.469 5.111-2.379 7.972-2.645v-3.268c-3.297 1.144-6.094 3.218-7.972 5.912z"></path>
<path d="M51.319 24.249c1.939-3.516 5.302-6.229 9.396-7.581v-9.416s-17.87 6.075-17.492 14.864v14.861s0.796-0.271 2.049-0.781c0-0.475 0-0.954 0.057-1.436 0.37-4.080 2.524-7.861 5.99-10.511z"></path>
<path d="M49.619 29.769c0.105-1.124 0.326-2.157 0.654-3.142l-0.028 0.099c-2.159 2.289-3.465 5.129-3.737 8.121-0.026 0.282-0.040 0.564-0.047 0.856 1.497-0.643 2.627-1.189 3.733-1.772l-0.296 0.142c-0.214-0.913-0.336-1.961-0.336-3.037 0-0.446 0.021-0.887 0.062-1.322l-0.004 0.056zM50.329 29.823c-0.035 0.361-0.055 0.78-0.055 1.204 0 0.953 0.101 1.883 0.292 2.779l-0.016-0.087c4.882-2.63 10.368-6.693 10.156-11.604v-0.429c-3.488 0.352-6.751 1.725-9.289 3.908-0.56 1.236-0.946 2.67-1.085 4.176l-0.004 0.053z"></path>
</symbol>
<symbol id="icon-Logo-4" viewBox="0 0 74 40">
<path d="M17.199 15.37h-0.002c-1.704 0-3.086 1.246-3.086 2.781v0.002c0 1.536 1.382 2.781 3.086 2.781h0.002c1.704 0 3.086-1.245 3.086-2.781v-0.002c0-1.536-1.381-2.781-3.086-2.781zM39.972 14.481c-0.004-2.134-0.946-4.179-2.62-5.689-1.674-1.509-3.941-2.359-6.309-2.364-2.367 0.004-4.636 0.854-6.311 2.363s-2.617 3.555-2.621 5.689v11.767s17.859-1.793 17.861-11.765v-0.002zM7.857 30.11c0.004 1.485 0.66 2.908 1.824 3.958s2.743 1.642 4.389 1.646c1.646-0.004 3.224-0.596 4.389-1.646s1.82-2.471 1.825-3.957v-8.186s-12.427 1.248-12.427 8.185zM14.071 31.577c-0.321 0-0.636-0.086-0.904-0.247-0.261-0.156-0.467-0.381-0.595-0.649l-0.004-0.009c-0.078-0.165-0.124-0.358-0.124-0.561 0-0.101 0.011-0.2 0.033-0.295l-0.002 0.009c0.070-0.301 0.228-0.558 0.444-0.75l0.001-0.001c0.226-0.202 0.51-0.344 0.823-0.4l0.010-0.002c0.316-0.057 0.643-0.028 0.94 0.084s0.551 0.299 0.73 0.54c0.179 0.241 0.274 0.525 0.274 0.815 0.001 0.193-0.041 0.385-0.122 0.564s-0.201 0.341-0.352 0.478c-0.149 0.134-0.324 0.242-0.517 0.316l-0.011 0.004c-0.185 0.071-0.399 0.112-0.622 0.112-0.001 0-0.001 0-0.002 0h0v-0.006zM25.435 28.939v3.047h-0.628v-3.047h0.628zM26.649 30.241v0.49h-1.386v-0.49h1.386zM26.795 28.939v0.491h-1.531v-0.491h1.531zM29.662 30.391v0.144c0 0.232-0.031 0.44-0.094 0.624-0.060 0.182-0.151 0.339-0.267 0.473l0.001-0.002c-0.114 0.129-0.251 0.226-0.41 0.295-0.15 0.065-0.324 0.102-0.507 0.102-0.007 0-0.013-0-0.020-0h0.001c-0.191 0-0.366-0.034-0.525-0.102-0.161-0.071-0.298-0.171-0.409-0.294l-0.001-0.001c-0.116-0.132-0.208-0.289-0.267-0.462l-0.003-0.010c-0.060-0.178-0.094-0.383-0.094-0.596 0-0.010 0-0.020 0-0.029v0.001-0.144c0-0.233 0.031-0.441 0.094-0.624 0.060-0.182 0.151-0.338 0.267-0.472l-0.001 0.002c0.116-0.13 0.252-0.229 0.41-0.297 0.159-0.069 0.334-0.103 0.526-0.103 0.193 0 0.367 0.034 0.525 0.103 0.159 0.069 0.296 0.167 0.41 0.297 0.116 0.13 0.205 0.286 0.268 0.471 0.064 0.182 0.096 0.39 0.096 0.623zM29.028 30.536v-0.149c0-0.161-0.014-0.304-0.044-0.426-0.026-0.118-0.071-0.221-0.132-0.313l0.002 0.003c-0.053-0.080-0.123-0.143-0.206-0.187l-0.003-0.001c-0.079-0.041-0.172-0.064-0.27-0.064-0.004 0-0.008 0-0.013 0h0.001c-0.106 0-0.2 0.021-0.283 0.064-0.085 0.046-0.155 0.109-0.206 0.186l-0.001 0.002c-0.058 0.089-0.102 0.193-0.127 0.304l-0.001 0.006c-0.028 0.12-0.044 0.258-0.044 0.4 0 0.009 0 0.019 0 0.028v-0.001 0.149c0 0.161 0.014 0.303 0.044 0.427 0.029 0.123 0.073 0.226 0.13 0.312 0.057 0.084 0.127 0.147 0.209 0.19s0.176 0.065 0.282 0.065c0.106 0 0.2-0.021 0.283-0.064 0.085-0.046 0.155-0.111 0.206-0.189l0.001-0.002c0.056-0.086 0.099-0.189 0.128-0.312 0.028-0.121 0.044-0.259 0.044-0.401 0-0.009-0-0.018-0-0.027v0.001zM31.7 31.189c0-0.002 0-0.004 0-0.007 0-0.050-0.009-0.098-0.026-0.143l0.001 0.003c-0.018-0.049-0.049-0.090-0.087-0.121l-0.001-0c-0.053-0.043-0.113-0.080-0.177-0.109l-0.005-0.002c-0.081-0.038-0.182-0.076-0.285-0.108l-0.018-0.005c-0.16-0.052-0.29-0.103-0.417-0.161l0.024 0.010c-0.125-0.056-0.232-0.121-0.33-0.197l0.004 0.003c-0.090-0.072-0.164-0.159-0.219-0.258l-0.002-0.004c-0.051-0.096-0.080-0.21-0.080-0.33 0-0.005 0-0.010 0-0.015v0.001c-0-0.003-0-0.006-0-0.010 0-0.123 0.031-0.238 0.086-0.339l-0.002 0.004c0.056-0.105 0.134-0.194 0.234-0.268 0.1-0.076 0.219-0.134 0.356-0.174 0.139-0.040 0.289-0.061 0.454-0.061 0.224 0 0.421 0.041 0.588 0.121s0.297 0.192 0.389 0.333c0.093 0.141 0.14 0.302 0.14 0.484h-0.624c0-0.003 0-0.007 0-0.011 0-0.082-0.021-0.159-0.058-0.226l0.001 0.002c-0.038-0.070-0.096-0.126-0.165-0.16l-0.002-0.001c-0.076-0.037-0.165-0.059-0.259-0.059-0.008 0-0.016 0-0.023 0l0.001-0c-0.006-0-0.014-0-0.021-0-0.090 0-0.177 0.019-0.255 0.052l0.004-0.002c-0.068 0.028-0.124 0.073-0.163 0.131l-0.001 0.001c-0.034 0.050-0.054 0.112-0.054 0.179 0 0.002 0 0.004 0 0.006v-0c0 0.051 0.012 0.099 0.037 0.14 0.032 0.047 0.071 0.086 0.116 0.116l0.002 0.001c0.051 0.036 0.114 0.071 0.19 0.103s0.163 0.064 0.261 0.094c0.166 0.050 0.312 0.106 0.438 0.169s0.233 0.133 0.318 0.211c0.086 0.079 0.149 0.166 0.193 0.266s0.064 0.211 0.064 0.337c0 0.009 0.001 0.019 0.001 0.029 0 0.243-0.118 0.458-0.3 0.591l-0.002 0.001c-0.097 0.072-0.214 0.127-0.349 0.165s-0.286 0.057-0.454 0.057c-0.15 0-0.299-0.020-0.446-0.059-0.152-0.042-0.285-0.104-0.405-0.185l0.005 0.003c-0.117-0.080-0.213-0.184-0.282-0.305l-0.002-0.004c-0.071-0.126-0.106-0.274-0.106-0.446h0.63c0 0.095 0.014 0.175 0.044 0.241 0.028 0.064 0.070 0.117 0.123 0.158l0.001 0.001c0.055 0.040 0.119 0.071 0.189 0.087l0.004 0.001c0.075 0.019 0.157 0.027 0.246 0.027 0.007 0 0.015 0 0.023 0 0.088 0 0.172-0.017 0.249-0.048l-0.005 0.002c0.124-0.050 0.209-0.169 0.209-0.308 0-0.002 0-0.003-0-0.005v0zM34.117 28.939v3.047h-0.626v-3.047h0.626zM35.055 28.939v0.491h-2.486v-0.491h2.486zM37.457 31.496v0.49h-1.621v-0.49h1.621zM36.041 28.939v3.047h-0.629v-3.047h0.629zM37.246 30.18v0.477h-1.411v-0.477h1.411zM37.455 28.939v0.491h-1.62v-0.491h1.62zM37.824 28.939h1.136c0.234 0 0.434 0.035 0.601 0.104 0.169 0.070 0.299 0.174 0.389 0.31s0.136 0.305 0.136 0.504c0 0.164-0.027 0.304-0.084 0.421-0.055 0.117-0.134 0.214-0.23 0.289l-0.002 0.001c-0.1 0.077-0.216 0.139-0.341 0.182l-0.008 0.002-0.199 0.105h-0.988l-0.004-0.49h0.734c0.006 0 0.013 0 0.021 0 0.092 0 0.18-0.022 0.257-0.060l-0.003 0.002c0.070-0.037 0.126-0.093 0.163-0.161l0.001-0.002c0.036-0.067 0.057-0.147 0.057-0.232 0-0.004-0-0.008-0-0.012v0.001c0-0.004 0-0.009 0-0.014 0-0.087-0.020-0.169-0.056-0.242l0.001 0.003c-0.037-0.071-0.094-0.127-0.164-0.162l-0.002-0.001c-0.076-0.036-0.165-0.057-0.259-0.057-0.007 0-0.014 0-0.021 0l0.001-0h-0.509v2.556h-0.627v-3.047zM39.526 31.986l-0.694-1.359 0.663-0.004 0.704 1.334v0.029h-0.671zM42.823 30.901h-0.776v-0.49h0.776c0.007 0 0.016 0.001 0.025 0.001 0.097 0 0.189-0.022 0.272-0.061l-0.004 0.002c0.072-0.038 0.129-0.095 0.164-0.166l0.001-0.002c0.033-0.073 0.052-0.158 0.052-0.247s-0.019-0.174-0.053-0.251l0.002 0.004c-0.036-0.079-0.092-0.143-0.163-0.188l-0.002-0.001c-0.078-0.045-0.171-0.072-0.27-0.072-0.008 0-0.016 0-0.024 0.001l0.001-0h-0.559v2.556h-0.627v-3.047h1.186c0.239 0 0.443 0.043 0.614 0.13 0.171 0.085 0.302 0.203 0.393 0.354s0.136 0.323 0.136 0.516c0 0.197-0.045 0.367-0.136 0.511s-0.221 0.255-0.393 0.333c-0.171 0.079-0.375 0.117-0.614 0.117zM46.443 31.496v0.49h-1.621v-0.49h1.621zM45.026 28.939v3.047h-0.629v-3.047h0.629zM46.231 30.18v0.477h-1.41v-0.477h1.411zM46.441 28.939v0.491h-1.619v-0.491h1.619zM48.214 28.939v3.047h-0.626v-3.047h0.626zM49.151 28.939v0.491h-2.486v-0.491h2.486zM51.553 31.496v0.49h-1.621v-0.49h1.621zM50.136 28.939v3.047h-0.628v-3.047h0.628zM51.341 30.18v0.477h-1.41v-0.477h1.41zM51.551 28.939v0.491h-1.619v-0.491h1.619zM51.919 28.939h1.136c0.234 0 0.434 0.035 0.601 0.104s0.299 0.174 0.389 0.31c0.090 0.136 0.136 0.305 0.136 0.504 0 0.164-0.029 0.304-0.084 0.421s-0.134 0.214-0.23 0.289l-0.002 0.001c-0.1 0.077-0.216 0.139-0.342 0.182l-0.008 0.002-0.199 0.105h-0.988l-0.004-0.49h0.735c0.006 0 0.013 0 0.020 0 0.092 0 0.18-0.022 0.257-0.060l-0.003 0.002c0.070-0.037 0.126-0.093 0.163-0.161l0.001-0.002c0.036-0.068 0.057-0.148 0.057-0.233 0-0.003-0-0.007-0-0.010v0.001c0-0.004 0-0.008 0-0.013 0-0.087-0.020-0.17-0.057-0.243l0.001 0.003c-0.037-0.071-0.093-0.127-0.163-0.162l-0.002-0.001c-0.076-0.036-0.165-0.057-0.259-0.057-0.007 0-0.014 0-0.021 0l0.001-0h-0.509v2.556h-0.628v-3.047zM53.623 31.986l-0.695-1.359 0.664-0.004 0.703 1.334v0.029h-0.671zM56.251 31.189c0-0.001 0-0.003 0-0.005 0-0.051-0.009-0.1-0.027-0.145l0.001 0.003c-0.018-0.049-0.049-0.090-0.087-0.121l-0.001-0c-0.053-0.043-0.113-0.080-0.177-0.109l-0.005-0.002c-0.081-0.038-0.182-0.076-0.285-0.108l-0.018-0.005c-0.161-0.052-0.291-0.103-0.418-0.161l0.024 0.010c-0.125-0.056-0.232-0.121-0.33-0.197l0.004 0.003c-0.090-0.072-0.164-0.159-0.219-0.258l-0.002-0.004c-0.051-0.096-0.080-0.21-0.080-0.33 0-0.005 0-0.010 0-0.015v0.001c-0-0.003-0-0.006-0-0.010 0-0.123 0.031-0.238 0.086-0.339l-0.002 0.004c0.056-0.105 0.134-0.194 0.234-0.268 0.1-0.076 0.219-0.134 0.356-0.174 0.139-0.040 0.289-0.061 0.454-0.061 0.224 0 0.421 0.041 0.588 0.121s0.297 0.192 0.389 0.333c0.094 0.141 0.14 0.302 0.14 0.484h-0.624c0-0.003 0-0.007 0-0.011 0-0.082-0.021-0.159-0.058-0.226l0.001 0.002c-0.038-0.070-0.096-0.126-0.165-0.16l-0.002-0.001c-0.076-0.037-0.165-0.059-0.259-0.059-0.008 0-0.016 0-0.023 0l0.001-0c-0.006-0-0.014-0-0.021-0-0.090 0-0.177 0.019-0.255 0.052l0.004-0.002c-0.068 0.028-0.123 0.073-0.163 0.131l-0.001 0.001c-0.034 0.051-0.054 0.113-0.054 0.18 0 0.002 0 0.003 0 0.005v-0c0 0.051 0.012 0.099 0.037 0.14 0.032 0.047 0.071 0.086 0.116 0.116l0.002 0.001c0.051 0.036 0.114 0.071 0.19 0.103s0.163 0.064 0.261 0.094c0.166 0.050 0.312 0.106 0.438 0.169s0.233 0.133 0.318 0.211c0.086 0.079 0.149 0.166 0.193 0.266s0.064 0.211 0.064 0.337c0 0.009 0.001 0.019 0.001 0.029 0 0.243-0.118 0.458-0.3 0.591l-0.002 0.001c-0.097 0.072-0.214 0.127-0.349 0.165s-0.286 0.057-0.454 0.057c-0.151 0-0.3-0.020-0.446-0.059-0.152-0.042-0.285-0.104-0.405-0.185l0.005 0.003c-0.118-0.080-0.213-0.184-0.283-0.305l-0.002-0.004c-0.071-0.126-0.106-0.274-0.106-0.446h0.63c0 0.095 0.014 0.175 0.044 0.241 0.028 0.064 0.070 0.117 0.123 0.158l0.001 0.001c0.055 0.040 0.119 0.071 0.189 0.087l0.004 0.001c0.075 0.019 0.157 0.027 0.247 0.027 0.007 0 0.015 0 0.023 0 0.088 0 0.172-0.017 0.249-0.048l-0.005 0.002c0.124-0.050 0.209-0.169 0.209-0.308 0-0.002 0-0.003-0-0.005v0z"></path>
</symbol>
<symbol id="icon-Logo-3" viewBox="0 0 74 40">
<path d="M26.293 35.159c0.011 0 0.023 0.003 0.033 0.007 0.011 0.004 0.021 0.009 0.029 0.017l-0-0 0.157 0.149c-0.123 0.12-0.271 0.215-0.434 0.278l-0.009 0.003c-0.2 0.071-0.414 0.106-0.629 0.101-0.010 0-0.021 0-0.033 0-0.2 0-0.393-0.035-0.571-0.098l0.012 0.004c-0.172-0.062-0.32-0.152-0.446-0.267l0.001 0.001c-0.121-0.113-0.219-0.25-0.285-0.404l-0.003-0.008c-0.064-0.151-0.101-0.327-0.101-0.512 0-0.005 0-0.011 0-0.016v0.001c-0-0.005-0-0.011-0-0.017 0-0.185 0.040-0.361 0.112-0.52l-0.003 0.008c0.069-0.153 0.173-0.293 0.306-0.411 0.133-0.115 0.291-0.206 0.463-0.266l0.010-0.003c0.176-0.060 0.378-0.094 0.589-0.094 0.007 0 0.014 0 0.021 0h-0.001c0.193-0.004 0.386 0.026 0.566 0.086 0.156 0.059 0.3 0.139 0.424 0.238l-0.132 0.159c-0.009 0.011-0.021 0.021-0.033 0.028l-0.001 0c-0.013 0.008-0.029 0.012-0.046 0.012-0.003 0-0.005-0-0.008-0l0 0c-0.021-0.001-0.041-0.008-0.058-0.017l0.001 0-0.071-0.042-0.098-0.054c-0.090-0.043-0.195-0.077-0.305-0.094l-0.007-0.001c-0.065-0.011-0.139-0.017-0.215-0.017-0.007 0-0.014 0-0.021 0h0.001c-0.005-0-0.010-0-0.016-0-0.151 0-0.296 0.026-0.431 0.074l0.009-0.003c-0.132 0.046-0.247 0.113-0.344 0.199l0.001-0.001c-0.099 0.092-0.174 0.2-0.223 0.317-0.051 0.119-0.081 0.258-0.081 0.404 0 0.005 0 0.010 0 0.015v-0.001c-0 0.005-0 0.010-0 0.016 0 0.147 0.030 0.288 0.083 0.415l-0.003-0.007c0.101 0.241 0.297 0.425 0.54 0.509l0.006 0.002c0.129 0.046 0.266 0.069 0.406 0.067 0.081 0.001 0.161-0.004 0.241-0.014 0.2-0.020 0.379-0.099 0.522-0.218l-0.002 0.001c0.020-0.016 0.046-0.026 0.075-0.027h0zM30.847 34.414c0.003 0.179-0.034 0.357-0.106 0.524-0.070 0.161-0.171 0.297-0.296 0.406l-0.001 0.001c-0.131 0.116-0.29 0.207-0.466 0.266-0.179 0.060-0.385 0.094-0.599 0.094s-0.42-0.034-0.613-0.098l0.014 0.004c-0.179-0.062-0.334-0.153-0.466-0.269l0.002 0.001c-0.126-0.112-0.227-0.249-0.296-0.403l-0.003-0.008c-0.067-0.155-0.107-0.335-0.107-0.525s0.039-0.37 0.11-0.534l-0.003 0.009c0.067-0.153 0.169-0.293 0.3-0.413 0.132-0.112 0.29-0.2 0.464-0.257 0.386-0.129 0.813-0.129 1.199 0 0.175 0.061 0.334 0.151 0.465 0.268 0.249 0.222 0.405 0.544 0.405 0.901 0 0.011-0 0.022-0 0.033l0-0.002zM30.433 34.414c0.004-0.143-0.021-0.286-0.074-0.421-0.096-0.245-0.293-0.431-0.538-0.512l-0.006-0.002c-0.13-0.044-0.28-0.069-0.436-0.069s-0.306 0.025-0.446 0.072l0.010-0.003c-0.129 0.045-0.241 0.113-0.334 0.2l0.001-0.001c-0.092 0.086-0.164 0.191-0.211 0.309l-0.002 0.006c-0.1 0.275-0.1 0.569 0 0.843 0.044 0.116 0.117 0.224 0.213 0.315 0.093 0.086 0.207 0.154 0.334 0.197 0.281 0.090 0.59 0.090 0.871 0 0.126-0.044 0.241-0.111 0.333-0.197 0.095-0.091 0.166-0.199 0.211-0.315 0.053-0.136 0.079-0.279 0.074-0.421zM33.954 34.856l0.041 0.094c0.016-0.034 0.030-0.064 0.046-0.094 0.015-0.032 0.032-0.063 0.051-0.093l1.007-1.564c0.020-0.028 0.038-0.044 0.057-0.050s0.043-0.008 0.067-0.008c0.005 0 0.011 0 0.016 0l-0.001-0h0.298v2.545h-0.353v-1.95c-0.001-0.013-0.001-0.028-0.001-0.044s0.001-0.031 0.002-0.046l-0 0.002-1.014 1.586c-0.014 0.025-0.034 0.044-0.059 0.057l-0.001 0c-0.025 0.013-0.054 0.021-0.085 0.021-0 0-0.001 0-0.001 0h-0.057c-0.001 0-0.001 0-0.002 0-0.031 0-0.060-0.008-0.086-0.022l0.001 0c-0.025-0.013-0.045-0.033-0.058-0.056l-0-0.001-1.043-1.597v2.043h-0.341v-2.54h0.298c0.004-0 0.008-0 0.013-0 0.025 0 0.049 0.003 0.072 0.009l-0.002-0c0.024 0.010 0.043 0.027 0.055 0.048l0 0.001 1.029 1.566c0.021 0.029 0.038 0.060 0.051 0.091zM37.746 34.73v0.953h-0.394v-2.541h0.879c0.166-0.003 0.332 0.016 0.491 0.056 0.128 0.031 0.246 0.084 0.347 0.158 0.084 0.066 0.151 0.149 0.195 0.246l0.002 0.004c0.046 0.104 0.069 0.214 0.067 0.325 0 0.003 0 0.007 0 0.011 0 0.232-0.112 0.438-0.284 0.567l-0.002 0.001c-0.099 0.075-0.216 0.133-0.343 0.167l-0.007 0.002c-0.153 0.041-0.314 0.061-0.474 0.059l-0.477-0.007zM37.746 34.457h0.477c0.104 0.001 0.207-0.012 0.306-0.039 0.084-0.024 0.158-0.062 0.222-0.111l-0.002 0.001c0.111-0.089 0.181-0.224 0.181-0.376 0-0.002 0-0.004-0-0.006v0c0.001-0.008 0.001-0.017 0.001-0.026 0-0.066-0.015-0.128-0.042-0.184l0.001 0.003c-0.033-0.069-0.080-0.127-0.137-0.173l-0.001-0.001c-0.132-0.087-0.294-0.139-0.468-0.139-0.022 0-0.044 0.001-0.065 0.002l0.003-0h-0.477v1.048zM43.046 35.686h-0.311c-0.002 0-0.004 0-0.006 0-0.030 0-0.058-0.009-0.081-0.024l0.001 0c-0.022-0.015-0.039-0.035-0.051-0.058l-0-0.001-0.268-0.615h-1.347l-0.278 0.614c-0.011 0.024-0.028 0.043-0.049 0.057l-0.001 0c-0.024 0.016-0.053 0.026-0.084 0.026-0.002 0-0.003-0-0.005-0h-0.311l1.183-2.545h0.41l1.199 2.545zM41.094 34.741h1.112l-0.469-1.036c-0.032-0.066-0.062-0.145-0.086-0.227l-0.003-0.012-0.045 0.133c-0.014 0.041-0.029 0.077-0.043 0.107l-0.466 1.036zM44.75 33.153c0.023 0.011 0.043 0.027 0.058 0.045l0 0 1.726 1.919v-1.976h0.353v2.545h-0.197c-0.002 0-0.005 0-0.008 0-0.027 0-0.052-0.005-0.075-0.015l0.001 0c-0.024-0.012-0.045-0.028-0.063-0.048l-0-0-1.723-1.917c0.001 0.013 0.001 0.028 0.001 0.044s-0.001 0.031-0.002 0.046l0-0.002v1.891h-0.353v-2.545h0.209c0.024-0.001 0.049 0.003 0.071 0.011zM49.793 34.674v1.011h-0.394v-1.011l-1.090-1.533h0.353c0.003-0 0.006-0 0.009-0 0.028 0 0.054 0.008 0.077 0.022l-0.001-0c0.021 0.016 0.039 0.036 0.053 0.057l0.682 0.989c0.047 0.065 0.087 0.14 0.118 0.219l0.002 0.007 0.051-0.109c0.019-0.040 0.042-0.079 0.067-0.116l0.672-0.996c0.015-0.021 0.032-0.039 0.051-0.054l0.001-0c0.022-0.016 0.049-0.025 0.078-0.025 0.002 0 0.005 0 0.007 0h0.357l-1.093 1.54zM33.759 28.869c0.171 0.019 0.345 0.034 0.521 0.047 2.661-1.016 4.911-2.681 6.471-4.785s2.359-4.553 2.297-7.043l-2.931-2.505c0.596 2.651 0.317 5.391-0.806 7.914-1.123 2.522-3.045 4.729-5.551 6.371z"></path>
<path d="M32.712 28.753l0.079 0.014c2.679-1.637 4.721-3.923 5.863-6.562s1.331-5.51 0.541-8.242l-4.176-3.568c1.689 2.933 2.369 6.215 1.961 9.464s-1.889 6.334-4.267 8.894zM46.875 20.030c-0.709 2.736-2.433 5.203-4.914 7.036-0.676 0.506-1.44 0.982-2.245 1.39l-0.089 0.041c2.020-0.507 3.877-1.404 5.427-2.621s2.753-2.723 3.514-4.4l-1.693-1.446z"></path>
<path d="M46.211 19.627l-2.411-2.060c-0.046 2.349-0.828 4.644-2.264 6.648s-3.474 3.642-5.901 4.745h0.012c0.541 0 1.081-0.028 1.619-0.082 2.269-0.791 4.274-2.050 5.834-3.664s2.63-3.534 3.111-5.586zM33.061 8.89l-2.876-2.461c-2.571 0.849-4.784 2.341-6.346 4.282s-2.403 4.24-2.411 6.596c0.010 2.602 1.035 5.129 2.914 7.177s4.504 3.504 7.459 4.135c2.639-2.747 4.184-6.141 4.41-9.689s-0.877-7.064-3.15-10.040zM52.857 19.249c-0.011-3.088-1.451-6.047-4.007-8.231-2.555-2.184-6.019-3.414-9.633-3.424-0.009-0-0.020-0-0.032-0-1.735 0-3.404 0.284-4.962 0.808l0.11-0.032 17.614 15.049c0.574-1.224 0.909-2.659 0.911-4.171v-0.001z"></path>
</symbol>
<symbol id="icon-Logo-2" viewBox="0 0 74 40">
<path d="M35.796 4.239h-0.098c-0.15-0.009-0.3-0.013-0.45-0.016h-0.325c-0.284 0-0.573 0.007-0.86 0.021-0.010-0.001-0.021-0.001-0.032-0.001s-0.023 0-0.034 0.001l0.001-0c-2.758 0.161-5.318 0.851-7.633 1.969l0.121-0.053-0.309 0.149v15.816l0.723-0.246c0.634-0.218 1.31-0.414 2.009-0.596 1.728-0.462 3.716-0.741 5.765-0.768l0.017-0v2.078c-0.259 0.001-0.509 0.009-0.761 0.021h-0.060c-1.624 0.091-3.145 0.335-4.609 0.719l0.161-0.036c-2.013 0.512-3.777 1.219-5.416 2.125l0.116-0.059v-20.284c1.601-0.952 3.453-1.727 5.414-2.229l0.147-0.032c1.571-0.422 3.375-0.668 5.236-0.676h0.309c0.365 0.009 0.721 0.026 1.056 0.051 0.881 0.062 1.754 0.201 2.611 0.416v2.045c-0.729-0.179-1.593-0.314-2.477-0.378l-0.053-0.003-0.052-0.004c-0.176-0.015-0.353-0.030-0.517-0.030zM39.395 6.329c0.454 0.035 0.924 0.051 1.399 0.051 1.961-0.008 3.858-0.265 5.666-0.742l-0.157 0.035c2.012-0.514 3.775-1.221 5.414-2.126l-0.117 0.059v19.921c-1.601 0.951-3.453 1.726-5.414 2.229l-0.148 0.032c-1.571 0.421-3.375 0.666-5.236 0.674h-0.005c-0.038 0-0.083 0.001-0.129 0.001-1.366 0-2.691-0.171-3.957-0.493l0.111 0.024v-20.051c0.307 0.071 0.624 0.136 0.945 0.191 0.528 0.089 1.084 0.154 1.626 0.194zM49.534 6.484l-0.723 0.243c-0.664 0.224-1.336 0.424-2.009 0.601-1.8 0.482-3.868 0.762-6 0.77h-0.005c-0.471 0-0.905-0.013-1.324-0.040l-0.576-0.038v16.269l0.495 0.043c0.459 0.041 0.932 0.061 1.409 0.061 1.683-0.007 3.312-0.23 4.863-0.642l-0.134 0.030c1.418-0.36 2.648-0.815 3.814-1.38l-0.118 0.052 0.309-0.149v-15.82z"></path>
<path d="M25.526 32.294c-0.194-0.201-0.466-0.326-0.767-0.326-0.013 0-0.026 0-0.040 0.001l0.002-0c-0.005-0-0.011-0-0.016-0-0.161 0-0.316 0.032-0.456 0.090l0.008-0.003c-0.275 0.11-0.487 0.325-0.592 0.594l-0.002 0.007c-0.057 0.143-0.085 0.295-0.083 0.449v2.71c-0.007 0.191 0.030 0.381 0.106 0.556 0.064 0.139 0.156 0.263 0.271 0.364 0.108 0.091 0.235 0.157 0.371 0.193 0.132 0.036 0.269 0.056 0.405 0.056 0.151 0.001 0.3-0.031 0.437-0.094 0.407-0.181 0.685-0.581 0.686-1.046v-0.303h-0.709v0.241c0 0.005 0 0.011 0 0.016 0 0.081-0.015 0.158-0.043 0.229l0.001-0.004c-0.024 0.060-0.059 0.111-0.103 0.153l-0 0c-0.081 0.063-0.184 0.102-0.296 0.104h-0c-0.012 0.002-0.027 0.002-0.041 0.002-0.119 0-0.225-0.058-0.29-0.147l-0.001-0.001c-0.060-0.096-0.095-0.211-0.095-0.336 0-0.010 0-0.019 0.001-0.029l-0 0.001v-2.527c-0.004-0.14 0.026-0.279 0.087-0.405 0.065-0.101 0.177-0.166 0.304-0.166 0.015 0 0.029 0.001 0.044 0.003l-0.002-0c0.004-0 0.009-0 0.013-0 0.124 0 0.234 0.060 0.302 0.152l0.001 0.001c0.073 0.096 0.117 0.217 0.117 0.348 0 0.005-0 0.011-0 0.016v-0.001 0.234h0.701v-0.276c0-0.004 0-0.008 0-0.012 0-0.166-0.032-0.325-0.089-0.471l0.003 0.009c-0.056-0.148-0.136-0.275-0.238-0.382l0 0zM29.735 32.264c-0.216-0.184-0.497-0.296-0.805-0.299h-0c-0.144 0-0.288 0.026-0.423 0.076-0.292 0.105-0.523 0.32-0.646 0.594l-0.003 0.007c-0.071 0.165-0.107 0.344-0.104 0.525v2.599c-0.005 0.183 0.031 0.364 0.104 0.532 0.064 0.14 0.157 0.264 0.274 0.364 0.109 0.1 0.236 0.179 0.374 0.229 0.136 0.050 0.279 0.076 0.423 0.076 0.309-0.001 0.592-0.116 0.807-0.306l-0.001 0.001c0.113-0.101 0.204-0.225 0.267-0.364 0.073-0.167 0.108-0.349 0.104-0.532v-2.599c0-0.007 0-0.015 0-0.023 0-0.181-0.038-0.354-0.107-0.51l0.003 0.008c-0.066-0.148-0.156-0.275-0.267-0.38l-0.001-0zM29.404 35.767c0.001 0.012 0.002 0.026 0.002 0.040 0 0.132-0.055 0.251-0.142 0.336l-0 0c-0.090 0.075-0.206 0.121-0.334 0.121s-0.244-0.046-0.334-0.122l0.001 0.001c-0.088-0.085-0.143-0.203-0.143-0.335 0-0.015 0.001-0.029 0.002-0.043l-0 0.002v-2.599c-0.001-0.012-0.002-0.026-0.002-0.040 0-0.132 0.055-0.251 0.142-0.335l0-0c0.089-0.076 0.206-0.122 0.334-0.122s0.244 0.046 0.334 0.122l-0.001-0.001c0.088 0.085 0.142 0.204 0.142 0.335 0 0.014-0.001 0.028-0.002 0.042l0-0.002v2.6zM35.262 36.929v-4.921h-0.681l-0.895 2.605h-0.012l-0.902-2.604h-0.674v4.92h0.703v-2.993h0.013l0.688 2.116h0.351l0.694-2.116h0.013v2.993h0.703zM39.256 32.353c-0.108-0.121-0.245-0.214-0.397-0.269-0.144-0.049-0.31-0.077-0.483-0.077-0.009 0-0.019 0-0.028 0l0.001-0h-1.044v4.921h0.701v-1.922h0.361c0.219 0.010 0.436-0.036 0.633-0.134 0.161-0.091 0.291-0.218 0.382-0.372l0.003-0.005c0.081-0.131 0.136-0.276 0.161-0.429 0.024-0.155 0.038-0.333 0.038-0.515 0-0.015-0-0.031-0-0.046l0 0.002c0.007-0.236-0.016-0.473-0.069-0.703-0.050-0.177-0.139-0.329-0.259-0.452l0 0zM38.894 33.853c-0.003 0.094-0.027 0.182-0.067 0.26l0.002-0.004c-0.041 0.076-0.103 0.135-0.178 0.171l-0.002 0.001c-0.087 0.040-0.188 0.063-0.294 0.063-0.013 0-0.026-0-0.038-0.001l0.002 0h-0.32v-1.673h0.361c0.010-0.001 0.022-0.001 0.034-0.001 0.103 0 0.2 0.023 0.287 0.064l-0.004-0.002c0.072 0.042 0.129 0.104 0.163 0.179l0.001 0.002c0.039 0.086 0.059 0.18 0.061 0.274v0.327c0 0.114 0.007 0.233 0 0.338h-0.007zM42.577 32.007h-0.575l-1.084 4.921h0.701l0.206-1.057h0.956l0.206 1.057h0.701l-1.111-4.921zM41.93 35.201l0.345-1.784h0.013l0.343 1.784h-0.701zM47.107 34.971h-0.013l-1.059-2.964h-0.674v4.921h0.701v-2.959h0.014l1.071 2.959h0.66v-4.92h-0.701v2.964zM51.391 32.007l-0.564 1.957h-0.014l-0.564-1.957h-0.741l0.963 2.841v2.079h0.701v-2.079l0.963-2.841h-0.743zM23.571 38.318h0.338v0.948h0.229v-0.949h0.336v-0.194h-0.903v0.195zM26.412 38.123l-0.443 1.143h0.244l0.094-0.26h0.456l0.097 0.26h0.25l-0.454-1.143h-0.244zM26.376 38.814l0.155-0.424 0.155 0.424h-0.311zM29.22 38.844h0.264v0.147c-0.074 0.060-0.168 0.096-0.271 0.096h-0c-0.005 0-0.011 0-0.016 0-0.092 0-0.173-0.043-0.226-0.109l-0-0.001c-0.053-0.076-0.085-0.17-0.085-0.272 0-0.009 0-0.018 0.001-0.027l-0 0.001c0-0.254 0.11-0.381 0.329-0.381 0.007-0.001 0.016-0.001 0.025-0.001 0.113 0 0.207 0.077 0.233 0.182l0 0.002 0.226-0.044c-0.049-0.223-0.209-0.336-0.484-0.336-0.005-0-0.010-0-0.015-0-0.148 0-0.283 0.056-0.385 0.148l0.001-0c-0.102 0.101-0.166 0.241-0.166 0.397 0 0.015 0.001 0.030 0.002 0.045l-0-0.002c-0 0.008-0.001 0.017-0.001 0.027 0 0.154 0.056 0.294 0.148 0.403l-0.001-0.001c0.101 0.104 0.242 0.169 0.398 0.169 0.012 0 0.025-0 0.037-0.001l-0.002 0c0.006 0 0.012 0 0.019 0 0.18 0 0.344-0.069 0.466-0.183l-0 0v-0.45h-0.495v0.193zM32.088 38.123h-0.231v1.143h0.8v-0.194h-0.569v-0.949zM34.513 38.123h-0.231v1.143h0.231v-1.143zM36.883 38.886l-0.468-0.763h-0.224v1.143h0.214v-0.746l0.459 0.746h0.23v-1.143h-0.212v0.764zM39.026 38.762h0.569v-0.194h-0.569v-0.25h0.612v-0.195h-0.844v1.143h0.867v-0.194h-0.636v-0.309zM44.223 38.574h-0.45v-0.45h-0.229v1.142h0.229v-0.5h0.45v0.5h0.23v-1.143h-0.23v0.451zM46.379 38.762h0.571v-0.194h-0.571v-0.25h0.614v-0.195h-0.843v1.143h0.866v-0.194h-0.636v-0.309zM49.302 38.763c0.199-0.031 0.3-0.136 0.3-0.318 0.001-0.010 0.002-0.021 0.002-0.032 0-0.091-0.045-0.172-0.113-0.222l-0.001-0.001c-0.084-0.043-0.184-0.069-0.29-0.069-0.016 0-0.031 0.001-0.047 0.002l0.002-0h-0.484v1.142h0.23v-0.478h0.045c0.006-0 0.012-0.001 0.018-0.001 0.045 0 0.088 0.010 0.126 0.027l-0.002-0.001c0.034 0.021 0.061 0.049 0.081 0.084l0.249 0.363h0.274l-0.139-0.223c-0.063-0.112-0.148-0.204-0.25-0.273l-0.003-0.002zM49.071 38.604h-0.169v-0.286h0.181c0.014-0.001 0.031-0.002 0.048-0.002 0.066 0 0.129 0.011 0.189 0.030l-0.004-0.001c0.031 0.028 0.050 0.067 0.050 0.112 0 0.049-0.024 0.093-0.060 0.12l-0 0c-0.057 0.018-0.123 0.029-0.191 0.029-0.015 0-0.030-0.001-0.045-0.002l0.002 0zM51.507 38.762h0.569v-0.194h-0.569v-0.25h0.614v-0.195h-0.846v1.143h0.867v-0.194h-0.636v-0.309z"></path>
</symbol>
<symbol id="icon-Logo-1" viewBox="0 0 74 40">
<path d="M27.143 5l5.006 4.769-9.291-0.004v23.136h24.286v-8.846l5 4.764v-23.818h-25zM46.923 23.494l-14.193-13.521h14.193v13.521zM42.516 29.516h-15.816v-15.56h1.118v14.507h14.699v1.054zM29.854 37.187l-0.589-1.213h-0.486l0.854 1.604v0.935h0.441v-0.935l0.855-1.604h-0.485l-0.589 1.212zM32.027 35.974h0.104l0.959 2.539h-0.46l-0.206-0.594h-0.983l-0.205 0.594h-0.459l0.956-2.539h0.293zM31.561 37.572h0.744l-0.371-1.077-0.371 1.077zM34.63 37.151c-0.007-0.009-0.025-0.032-0.043-0.055l-0.012-0.016c-0.057-0.072-0.107-0.154-0.149-0.241l-0.003-0.008c-0.034-0.074-0.054-0.16-0.054-0.251 0-0 0-0 0-0.001v0c0-0.132 0.027-0.246 0.081-0.341s0.134-0.17 0.229-0.219l0.003-0.001c0.1-0.052 0.217-0.079 0.35-0.079 0.129 0 0.241 0.026 0.334 0.079 0.177 0.093 0.295 0.276 0.295 0.486 0 0.079-0.017 0.153-0.046 0.221l0.001-0.004c-0.032 0.070-0.072 0.13-0.122 0.182l0-0c-0.053 0.057-0.111 0.108-0.174 0.153l-0.004 0.002-0.176 0.129 0.503 0.593c0.069-0.133 0.109-0.29 0.109-0.456 0-0.006-0-0.013-0-0.019v0.001h0.363c0 0.124-0.012 0.24-0.036 0.35-0.034 0.16-0.099 0.301-0.188 0.422l0.002-0.003 0.371 0.439h-0.486l-0.148-0.174c-0.075 0.058-0.161 0.106-0.253 0.141l-0.007 0.002c-0.115 0.042-0.247 0.066-0.385 0.066-0.003 0-0.007 0-0.010-0h0.001c-0.169 0-0.314-0.031-0.438-0.093-0.119-0.058-0.216-0.145-0.284-0.252l-0.002-0.003c-0.063-0.103-0.1-0.227-0.1-0.36 0-0.004 0-0.008 0-0.012v0.001c0-0.104 0.021-0.194 0.064-0.271 0.044-0.079 0.102-0.153 0.176-0.221 0.069-0.062 0.147-0.124 0.236-0.186zM34.839 37.406l-0.053 0.038c-0.053 0.041-0.099 0.089-0.136 0.143l-0.001 0.002c-0.045 0.066-0.071 0.147-0.071 0.235 0 0.071 0.017 0.137 0.048 0.196l-0.001-0.002c0.033 0.061 0.081 0.11 0.14 0.144l0.002 0.001c0.063 0.033 0.137 0.053 0.216 0.053 0.005 0 0.009-0 0.014-0h-0.001c0.096 0 0.19-0.021 0.281-0.064 0.049-0.025 0.091-0.051 0.13-0.082l-0.002 0.001-0.564-0.664zM34.939 36.942l0.156-0.104c0.062-0.038 0.114-0.086 0.156-0.141l0.001-0.001c0.030-0.047 0.047-0.105 0.047-0.167 0-0.004-0-0.008-0-0.012v0.001c-0.005-0.136-0.116-0.245-0.253-0.245-0.005 0-0.010 0-0.015 0l0.001-0c-0.002-0-0.005-0-0.007-0-0.103 0-0.193 0.061-0.234 0.149l-0.001 0.002c-0.019 0.042-0.030 0.092-0.030 0.144 0 0.061 0.015 0.118 0.042 0.168l-0.001-0.002c0.026 0.055 0.063 0.112 0.11 0.173l0.029 0.037zM39.381 37.687h-0.436c-0.010 0.104-0.038 0.199-0.082 0.285l0.002-0.004c-0.040 0.075-0.1 0.135-0.174 0.172l-0.002 0.001c-0.081 0.038-0.175 0.060-0.275 0.060-0.009 0-0.019-0-0.028-0.001l0.001 0c-0.004 0-0.009 0-0.014 0-0.091 0-0.177-0.023-0.252-0.063l0.003 0.001c-0.075-0.042-0.136-0.101-0.18-0.171l-0.001-0.002c-0.047-0.077-0.083-0.166-0.103-0.261l-0.001-0.006c-0.021-0.101-0.034-0.217-0.034-0.335 0-0.005 0-0.009 0-0.014v0.001-0.214c0-0.136 0.012-0.255 0.036-0.36 0.026-0.106 0.064-0.194 0.114-0.266 0.047-0.069 0.11-0.125 0.183-0.163l0.003-0.001c0.073-0.035 0.158-0.056 0.248-0.056 0.005 0 0.010 0 0.015 0h-0.001c0.121 0 0.221 0.021 0.296 0.063s0.132 0.1 0.171 0.179c0.039 0.077 0.065 0.171 0.076 0.28h0.436c-0.015-0.168-0.066-0.322-0.146-0.457l0.003 0.005c-0.078-0.132-0.188-0.237-0.32-0.306l-0.004-0.002c-0.14-0.071-0.305-0.113-0.48-0.113-0.011 0-0.023 0-0.034 0.001l0.002-0c-0.159 0-0.303 0.029-0.431 0.084s-0.236 0.136-0.326 0.243c-0.091 0.106-0.162 0.232-0.207 0.37l-0.002 0.008c-0.048 0.147-0.071 0.313-0.071 0.495v0.211c0 0.182 0.024 0.347 0.070 0.495s0.116 0.274 0.206 0.379c0.089 0.104 0.197 0.184 0.322 0.241 0.126 0.056 0.267 0.084 0.424 0.084 0.204 0 0.379-0.037 0.521-0.111s0.254-0.176 0.333-0.306c0.079-0.13 0.126-0.279 0.139-0.444zM41.803 37.314v-0.139c0-0.191-0.025-0.364-0.076-0.514-0.048-0.15-0.121-0.28-0.216-0.391l0.001 0.002c-0.090-0.105-0.201-0.188-0.328-0.243l-0.006-0.002c-0.129-0.057-0.271-0.086-0.429-0.086-0.156 0-0.299 0.029-0.427 0.086-0.129 0.056-0.239 0.138-0.334 0.246-0.093 0.107-0.164 0.237-0.216 0.389-0.049 0.147-0.077 0.316-0.077 0.491 0 0.008 0 0.016 0 0.024v-0.001 0.139c0 0.192 0.026 0.364 0.077 0.516 0.050 0.15 0.125 0.279 0.221 0.39l-0.001-0.001c0.094 0.107 0.206 0.189 0.333 0.246 0.129 0.056 0.271 0.084 0.428 0.084s0.3-0.029 0.429-0.084c0.129-0.057 0.24-0.139 0.331-0.246 0.093-0.107 0.164-0.236 0.214-0.389s0.075-0.324 0.075-0.516zM41.366 37.171v0.143c0 0.142-0.014 0.268-0.042 0.377-0.024 0.105-0.065 0.198-0.12 0.28l0.002-0.003c-0.049 0.071-0.113 0.128-0.189 0.168l-0.003 0.001c-0.073 0.035-0.158 0.056-0.248 0.056-0.004 0-0.008-0-0.012-0h0.001c-0.003 0-0.007 0-0.011 0-0.090 0-0.175-0.021-0.251-0.057l0.003 0.001c-0.079-0.041-0.144-0.099-0.194-0.168l-0.001-0.002c-0.055-0.079-0.097-0.172-0.121-0.271l-0.001-0.006c-0.027-0.107-0.042-0.231-0.042-0.357 0-0.007 0-0.014 0-0.021v0.001-0.143c0-0.141 0.014-0.266 0.042-0.375s0.068-0.2 0.12-0.274c0.050-0.071 0.115-0.127 0.191-0.166l0.003-0.001c0.073-0.037 0.158-0.058 0.249-0.058 0.004 0 0.007 0 0.011 0h-0.001c0.096 0 0.183 0.019 0.26 0.057s0.141 0.093 0.193 0.168c0.054 0.073 0.094 0.164 0.121 0.274 0.029 0.109 0.042 0.234 0.042 0.375z"></path>
</symbol>
<symbol id="icon-astronaut" viewBox="0 0 40 40">
<path fill="#4d5ae5" style="fill: var(--color3, #4d5ae5)" d="M39.968 5.655c-0.080-0.239-0.284-0.415-0.534-0.453l-0.004-0-2.389-0.348-1.069-2.164c-0.224-0.456-0.971-0.456-1.195 0l-1.069 2.164-2.388 0.348c-0.325 0.049-0.571 0.326-0.571 0.66 0 0.187 0.077 0.356 0.201 0.477l1.728 1.684-0.408 2.379c-0.042 0.25 0.060 0.502 0.265 0.652 0.208 0.151 0.478 0.169 0.703 0.051l2.136-1.123 2.136 1.123c0.090 0.048 0.196 0.076 0.309 0.076 0.369 0 0.667-0.299 0.667-0.668 0-0.039-0.003-0.078-0.010-0.115l0.001 0.004-0.407-2.379 1.729-1.684c0.124-0.122 0.201-0.291 0.201-0.478 0-0.073-0.012-0.144-0.034-0.21l0.001 0.005zM36.889 7.314c-0.156 0.152-0.229 0.374-0.191 0.59l0.239 1.393-1.251-0.657c-0.090-0.049-0.197-0.077-0.311-0.077s-0.221 0.029-0.314 0.079l0.004-0.002-1.251 0.657 0.238-1.393c0.006-0.034 0.010-0.073 0.010-0.113 0-0.187-0.077-0.356-0.201-0.477l-1.013-0.987 1.399-0.203c0.218-0.031 0.404-0.168 0.502-0.365l0.625-1.266 0.626 1.266c0.097 0.197 0.285 0.334 0.503 0.365l1.398 0.203-1.011 0.987zM32.667 25.652h-1.334v1.334h1.334v-1.334zM32.667 28.319h-1.334v1.334h1.334v-1.334z"></path>
<path fill="#4d5ae5" style="fill: var(--color3, #4d5ae5)" d="M34 26.986h-1.333v1.333h1.333v-1.333zM31.334 26.986h-1.334v1.333h1.334v-1.333zM28 32.986h-1.333v1.333h1.333v-1.333zM28 35.653h-1.333v1.333h1.333v-1.333zM29.334 34.319h-1.334v1.334h1.334v-1.334z"></path>
<path fill="#4d5ae5" style="fill: var(--color3, #4d5ae5)" d="M26.667 34.319h-1.334v1.334h1.334v-1.334zM20 30.319h-1.333v1.334h1.333v-1.334zM20 32.986h-1.333v1.333h1.333v-1.333zM21.333 31.653h-1.333v1.333h1.333v-1.333zM18.667 31.653h-1.334v1.333h1.334v-1.333zM7.333 7.652h-1.333v1.333h1.333v-1.333zM7.333 10.319h-1.333v1.334h1.333v-1.333zM8.666 8.986h-1.333v1.334h1.333v-1.334zM6 8.986h-1.334v1.334h1.334v-1.334z"></path>
<path fill="#2e2f42" style="fill: var(--color4, #2e2f42)" d="M30.894 17.699c-0.35-0.471-0.873-0.796-1.474-0.88l-0.012-0.001c-0.095-0.014-0.205-0.023-0.317-0.023-0.514 0-0.987 0.174-1.363 0.467l0.005-0.004-1.565 1.199-2.372 1.772-1.697-0.676c3.026-1.358 5.142-4.385 5.142-7.9 0-4.779-3.903-8.666-8.701-8.666s-8.702 3.887-8.702 8.666c0 1.732 0.518 3.343 1.4 4.698l-3.461-0.030c-0.011 0-0.019 0.006-0.029 0.006-0.066 0.003-0.131 0.016-0.194 0.038-0.016 0.006-0.032 0.009-0.048 0.017-0.008 0.003-0.016 0.004-0.024 0.008l-4.043 1.996-2.367 1.139c-0.030 0.014-0.056 0.028-0.081 0.045l0.002-0.001c-0.602 0.405-0.993 1.083-0.993 1.853 0 0.371 0.091 0.72 0.251 1.028l-0.006-0.012c0.275 0.536 0.744 0.931 1.32 1.112 0.201 0.066 0.432 0.104 0.671 0.104 0.385 0 0.747-0.098 1.063-0.27l-0.012 0.006 1.735-0.922 2.83-1.462 1.696-0.009-6.803 6.769c0 0.001-0.001 0.001-0.002 0.002l-1.673 1.666c-0.378 0.374-0.613 0.893-0.613 1.466 0 0.002 0 0.004 0 0.007v-0c0 0.556 0.217 1.079 0.613 1.473 0.406 0.404 0.94 0.606 1.474 0.606 0.535 0 1.068-0.202 1.475-0.606l1.643-1.636 2.176-1.625 1.126 1.121-3.877 3.861c-0.378 0.374-0.613 0.893-0.613 1.466 0 0.002 0 0.004 0 0.006v-0c0 0.556 0.218 1.079 0.613 1.474 0.406 0.404 0.941 0.606 1.475 0.606s1.069-0.203 1.475-0.606l4.353-4.333c0-0.001 0-0.002 0.001-0.002l1.262-1.25-0.005-0.004c0.008-0.008 0.019-0.011 0.027-0.019l6.457-7.073 4.339 0.617c0.025 0.003 0.055 0.005 0.085 0.005 0.088 0 0.171-0.017 0.248-0.048l-0.004 0.002c0.022-0.008 0.041-0.019 0.063-0.029 0.024-0.012 0.049-0.019 0.071-0.034l4.017-2.667c0.015-0.010 0.023-0.026 0.037-0.037 0.016-0.012 0.036-0.017 0.050-0.031l1.59-1.489c0.434-0.407 0.704-0.984 0.704-1.624 0-0.5-0.165-0.962-0.444-1.334l0.004 0.006zM2.662 22.212c-0.216 0.116-0.462 0.139-0.697 0.065-0.368-0.116-0.631-0.454-0.631-0.854 0-0.295 0.143-0.556 0.363-0.719l0.002-0.002 1.643-0.79 0.395 1.156 0.166 0.485-1.241 0.659zM7.034 19.928l-1.936 1-0.319-0.934-0.229-0.671 2.533-1.25-0.049 1.854zM25.909 11.652c0 1.148-0.274 2.231-0.749 3.199l-5.227-2.374c-0.054-0.719-0.428-1.341-0.978-1.73l-0.007-0.005 1.83-6.075c2.972 0.944 5.131 3.717 5.131 6.984zM11.173 11.652c0-4.044 3.306-7.334 7.368-7.334 0.316 0 0.625 0.027 0.931 0.066l-1.79 5.942c-0.024 0-0.047-0.007-0.071-0.007-0 0-0 0-0.001 0-1.29 0-2.336 1.044-2.34 2.333v0c0.004 1.289 1.050 2.333 2.34 2.333 0 0 0 0 0.001 0h-0c0.868 0 1.618-0.479 2.023-1.181l4.828 2.194c-1.344 1.808-3.494 2.987-5.921 2.987-4.063 0-7.368-3.291-7.368-7.334zM18.618 12.652c0 0.551-0.452 1-1.008 1-0.001 0-0.002 0-0.003 0-0.553 0-1.002-0.447-1.005-1v-0c0-0.551 0.452-1 1.008-1s1.008 0.449 1.008 1zM3.081 31.433c-0.137 0.136-0.326 0.219-0.534 0.219s-0.396-0.083-0.533-0.218l0 0c-0.136-0.135-0.221-0.321-0.221-0.528s0.084-0.393 0.22-0.528l0-0 1.203-1.198 1.064 1.059-1.198 1.194zM7.098 36.099c-0.137 0.136-0.326 0.22-0.535 0.22s-0.397-0.084-0.534-0.219l0 0c-0.136-0.135-0.22-0.321-0.22-0.528s0.084-0.393 0.22-0.528l0-0 1.204-1.199 1.064 1.059-1.199 1.194zM11.451 31.764l-0.002 0.001-2.206 2.2-1.064-1.059 2.204-2.195s0.001 0 0.002-0.001c0.050-0.050 0.081-0.11 0.112-0.169 0.008-0.018 0.025-0.033 0.033-0.050 0.021-0.052 0.024-0.107 0.031-0.161 0.004-0.031 0.018-0.059 0.018-0.091 0-0.044-0.016-0.088-0.025-0.132-0.008-0.040-0.008-0.081-0.023-0.119-0.025-0.063-0.069-0.118-0.114-0.172-0.012-0.015-0.017-0.034-0.031-0.047h-0.001l-0.001-0.002-2.009-2c-0.021-0.021-0.049-0.030-0.072-0.048-0.032-0.026-0.067-0.050-0.105-0.070l-0.003-0.002c-0.033-0.016-0.072-0.030-0.113-0.040l-0.004-0.001c-0.037-0.012-0.081-0.021-0.126-0.025l-0.003-0c-0.008-0-0.017-0.001-0.026-0.001-0.033 0-0.065 0.002-0.097 0.007l0.004-0c-0.048 0.004-0.093 0.013-0.135 0.026l0.005-0.001c-0.045 0.016-0.084 0.035-0.12 0.058l0.003-0.002c-0.025 0.014-0.053 0.019-0.076 0.036l-2.217 1.655-1.126-1.121 2.999-2.983 5.45 5.361-1.159 1.149zM19.974 22.992c-0.019-0.003-0.037 0.005-0.056 0.004-0.010-0.001-0.021-0.001-0.032-0.001-0.039 0-0.078 0.003-0.115 0.010l0.004-0.001c-0.087 0.013-0.165 0.043-0.234 0.086l0.003-0.001c-0.037 0.023-0.071 0.047-0.104 0.077-0.016 0.014-0.036 0.021-0.050 0.036l-5.873 6.433-5.41-5.321 3.541-3.523c0.12-0.121 0.195-0.287 0.195-0.471 0-0.369-0.299-0.668-0.668-0.668-0.001 0-0.001 0-0.002 0h0l-2.773 0.016 0.034-2.009 3.88 0.033c1.579 1.621 3.784 2.626 6.223 2.626 0.001 0 0.003 0 0.004 0h-0c0.547 0 1.080-0.056 1.599-0.153 0.050 0.040 0.099 0.081 0.162 0.106l3.011 1.2 0.191 0.948 0.223 1.106-3.754-0.534zM25.026 23.216l-0.392-1.948 1.808-1.35 1.184 1.571-2.6 1.727zM29.718 19.677l-1.047 0.981-1.164-1.546 1.039-0.796c0.194-0.15 0.438-0.21 0.678-0.179 0.242 0.034 0.455 0.16 0.6 0.355 0.271 0.365 0.225 0.874-0.106 1.184z"></path>
<path fill="#2e2f42" style="fill: var(--color4, #2e2f42)" d="M17.003 23.18l-2.679-2.667c-0.12-0.12-0.287-0.194-0.47-0.194s-0.35 0.074-0.47 0.194l-2.678 2.667c-0.121 0.121-0.195 0.288-0.195 0.473s0.075 0.352 0.195 0.473l-0-0 2.678 2.666c0.12 0.12 0.287 0.194 0.47 0.194s0.35-0.074 0.47-0.194l2.679-2.666c0.121-0.121 0.197-0.288 0.197-0.473s-0.075-0.352-0.197-0.473l-0-0zM13.854 25.379l-1.733-1.726 1.733-1.726 1.734 1.726-1.734 1.726zM21.455 6.339l-0.322 1.294c0.089 0.022 2.172 0.565 2.172 2.686h1.334c0-2.521-2.082-3.707-3.183-3.981zM24.639 11.652h-1.333v1.334h1.333v-1.334z"></path>
</symbol>
<symbol id="icon-diagram" viewBox="0 0 40 40">
<path fill="#4d5ae5" style="fill: var(--color3, #4d5ae5)" d="M18.657 18.706h1.332v5.996h-1.332v-5.996zM23.988 21.371h1.332v3.331h-1.332v-3.331zM13.326 23.37h1.333v1.332h-1.333v-1.332zM9.328 22.704h1.333v1.999h-1.333v-1.999z"></path>
<path fill="#2e2f42" style="fill: var(--color4, #2e2f42)" d="M1.999 35.364h31.983c0 0 0 0 0.001 0 1.104 0 1.999-0.895 1.999-1.999v0-2.666c0-1.104-0.895-1.999-1.999-1.999-0 0-0 0-0.001 0h-0.666v-16.617l3.785-3.585c0.259 0.131 0.565 0.207 0.889 0.207 1.11 0 2.010-0.9 2.010-2.010s-0.9-2.010-2.010-2.010c-1.11 0-2.010 0.9-2.010 2.010 0 0.308 0.069 0.6 0.193 0.861l-0.005-0.012-2.852 2.703v-1.537c0-1.104-0.895-1.999-1.999-1.999v0h-26.652c-0 0-0 0-0.001 0-1.104 0-1.999 0.895-1.999 1.999 0 0 0 0 0 0.001v-0 19.989h-0.666c-1.104 0-1.999 0.895-1.999 1.999 0 0 0 0 0 0.001v-0 2.666c0 1.104 0.895 1.999 1.999 1.999v0zM37.98 6.046c0.368 0 0.667 0.298 0.667 0.667s-0.298 0.667-0.667 0.667v0c-0.368 0-0.667-0.298-0.667-0.667s0.298-0.667 0.667-0.667v0zM3.998 8.711c0-0.369 0.298-0.667 0.666-0.667h26.652c0.368 0 0.666 0.299 0.666 0.667v2.798l-1.332 1.266v-2.732c0-0.368-0.298-0.666-0.666-0.666h-23.988c-0.368 0-0.666 0.298-0.666 0.666v16.658c0 0.369 0.298 0.667 0.666 0.667h23.988c0.368 0 0.666-0.299 0.666-0.667v-12.093l1.332-1.262v15.354h-27.985v-19.989zM9.995 17.373c-0.002 0-0.004 0-0.006 0-1.104 0-1.999 0.895-1.999 1.999s0.895 1.999 1.999 1.999c0.54 0 1.030-0.214 1.39-0.562l-0.001 0.001 2.316 1.163c0.269 0.134 0.596 0.071 0.796-0.154l4.923-5.539 4.84 3.627c0.26 0.194 0.623 0.174 0.858-0.049l4.206-3.984v10.164h-22.654v-15.325h22.655v3.325l-4.715 4.465-4.881-3.659c-0.11-0.083-0.249-0.133-0.399-0.133-0.198 0-0.375 0.086-0.497 0.223l-0.001 0.001-4.991 5.616-1.866-0.933c0.014-0.080 0.023-0.161 0.026-0.242-0-1.104-0.895-1.998-1.999-1.999h-0zM10.661 19.372c0 0.368-0.298 0.667-0.667 0.667s-0.667-0.298-0.667-0.667v0c0-0.368 0.298-0.667 0.667-0.667s0.667 0.298 0.667 0.667v0zM14.659 30.033h6.663v0.666c0 0.368-0.298 0.666-0.666 0.666h-5.331c-0.368 0-0.666-0.298-0.666-0.666v0-0.666zM1.333 30.7c0-0.368 0.299-0.666 0.666-0.666h11.328v0.666c0 0 0 0 0 0.001 0 1.104 0.895 1.999 1.999 1.999h5.331c1.104 0 1.999-0.895 1.999-1.999 0-0 0-0 0-0.001v0-0.666h11.326c0.369 0 0.667 0.298 0.667 0.666v2.666c0 0.367-0.299 0.666-0.667 0.666h-31.982c-0.368 0-0.666-0.298-0.666-0.666v0-2.666z"></path>
</symbol>
<symbol id="icon-clock" viewBox="0 0 40 40">
<path fill="#2e2f42" style="fill: var(--color4, #2e2f42)" d="M39.121 19.126c-0.002-10.565-8.569-19.128-19.135-19.126-10.565 0.002-19.128 8.569-19.126 19.135 0.002 8.485 5.528 15.679 13.177 18.182l0.135 0.038c0.075 0.024 0.154 0.036 0.233 0.036 0.151 0 0.299-0.041 0.428-0.117 0.169-0.1 0.295-0.259 0.354-0.446l4.831-15.312c1.317-0.005 2.383-1.074 2.383-2.391 0-1.321-1.071-2.391-2.391-2.391-0.379 0-0.737 0.088-1.056 0.245l0.014-0.006-6.383-6.383c-0.144-0.144-0.343-0.233-0.563-0.233-0.44 0-0.797 0.357-0.797 0.797 0 0.22 0.089 0.419 0.234 0.564v0l6.379 6.386c-0.151 0.301-0.239 0.656-0.239 1.032 0 0.752 0.354 1.421 0.904 1.85l0.005 0.004-4.603 14.591c-9.098-3.351-13.756-13.442-10.404-22.54 3.351-9.096 13.443-13.756 22.54-10.404s13.755 13.443 10.404 22.54c-1.681 4.476-5.005 8.007-9.218 9.922l-0.11 0.045-0.497-2.343c-0.079-0.363-0.398-0.632-0.78-0.632-0.204 0-0.39 0.077-0.531 0.203l0.001-0.001-4.796 4.282c-0.165 0.147-0.268 0.359-0.268 0.596 0 0.354 0.231 0.655 0.551 0.758l0.006 0.002 6.123 1.954c0.073 0.024 0.157 0.038 0.244 0.038 0.44 0 0.797-0.357 0.797-0.797 0-0.059-0.006-0.116-0.019-0.172l0.001 0.005-0.489-2.299c6.91-2.968 11.661-9.715 11.661-17.571 0-0.014 0-0.028-0-0.043v0.002zM19.99 18.329c0.44 0 0.797 0.357 0.797 0.797s-0.357 0.797-0.797 0.797v0c-0.44 0-0.797-0.357-0.797-0.797s0.357-0.797 0.797-0.797v0zM22.616 36.909l2.73-2.435 0.754 3.55-3.484-1.115z"></path>
<path fill="#4d5ae5" style="fill: var(--color3, #4d5ae5)" d="M19.193 3.981v1.594c0 0.44 0.357 0.797 0.797 0.797s0.797-0.357 0.797-0.797v-1.594c-0.017-0.427-0.368-0.766-0.797-0.766s-0.779 0.339-0.797 0.764l-0 0.002zM4.845 18.329c-0.44 0-0.797 0.357-0.797 0.797s0.357 0.797 0.797 0.797h1.594c0.44 0 0.797-0.357 0.797-0.797s-0.357-0.797-0.797-0.797h-1.594zM35.135 19.924c0.44 0 0.797-0.357 0.797-0.797s-0.357-0.797-0.797-0.797h-1.594c-0.427 0.017-0.766 0.368-0.766 0.797s0.339 0.779 0.764 0.797l0.002 0h1.594z"></path>
</symbol>
<symbol id="icon-antenna" viewBox="0 0 40 40">
<path fill="#2e2f42" style="fill: var(--color4, #2e2f42)" d="M38.466 27.622l-10.554-10.631 1.171-5.769c0.303 0.117 0.624 0.179 0.948 0.181h0.008c0.009 0 0.021 0 0.032 0 1.49 0 2.699-1.208 2.699-2.699s-1.208-2.699-2.699-2.699c-1.49 0-2.699 1.208-2.699 2.699 0 0.324 0.057 0.635 0.162 0.924l-0.006-0.019-6.2 0.756-10.114-10.166c-0.12-0.122-0.286-0.198-0.47-0.2h-0c-0.175 0.001-0.342 0.071-0.467 0.194l-1.891 1.88c-0.121 0.121-0.195 0.287-0.195 0.472s0.075 0.351 0.195 0.472v0l1.018 1.031c-1.429 2.578-2.269 5.652-2.269 8.923 0 5.132 2.070 9.781 5.421 13.157l-0.001-0.001c0.052 0.051 0.114 0.092 0.182 0.122-0.040 0.205-0.064 0.441-0.065 0.683v7.735h-8c-1.84 0.002-3.332 1.493-3.334 3.333v1.333c0 0.369 0.299 0.667 0.667 0.667h30.667c0.368 0 0.667-0.299 0.667-0.667v-1.333c-0.002-1.84-1.494-3.331-3.334-3.333h-8v-3.427c1.253 0.262 2.53 0.397 3.811 0.4 3.225-0.004 6.256-0.829 8.896-2.278l-0.096 0.048 1.023 1.029c0.124 0.126 0.293 0.199 0.471 0.2 0.175-0.001 0.343-0.071 0.466-0.194l1.891-1.881c0.121-0.121 0.195-0.287 0.195-0.471s-0.075-0.351-0.195-0.471v0zM29.1 7.791c0.241-0.239 0.573-0.387 0.94-0.387 0.736 0 1.333 0.597 1.333 1.333s-0.597 1.333-1.333 1.333c-0 0-0 0-0 0h-0.004c-0.733-0.004-1.327-0.599-1.327-1.333 0-0.37 0.15-0.704 0.393-0.946l0-0h-0.002zM27.531 12.172l-0.748 3.681-1.469-1.478 2.218-2.204zM26.773 11.045l-2.4 2.386-1.856-1.867 4.256-0.519zM30.005 36c1.105 0 2 0.895 2 2v0 0.667h-29.333v-0.667c0-1.105 0.895-2 2-2h25.333zM20.672 33.333v1.334h-6.667v-1.334h6.667zM14.005 32v-5.067c0-1.617 1.496-2.933 3.333-2.933s3.334 1.316 3.334 2.933v5.067h-6.667zM22.005 29.88v-2.947c0-2.353-2.094-4.266-4.666-4.266-0.022-0-0.048-0.001-0.074-0.001-1.691 0-3.175 0.883-4.017 2.214l-0.012 0.019c-2.95-3.102-4.764-7.308-4.764-11.937 0-2.893 0.708-5.62 1.961-8.018l-0.046 0.096 23.253 23.386c-2.278 1.184-4.974 1.878-7.833 1.878-1.348 0-2.661-0.154-3.92-0.447l0.117 0.023zM36.116 29.026l-26.321-26.476 0.944-0.94 9.919 9.975c0.004 0 0.007 0.008 0.012 0.012l16.393 16.489-0.946 0.94z"></path>
<path fill="#4d5ae5" style="fill: var(--color3, #4d5ae5)" d="M17.344 25.333h-0.006c-0.001 0-0.002 0-0.003 0-1.105 0-2 0.895-2 2 0 1.103 0.894 1.998 1.997 2h0.006c0.001 0 0.002 0 0.003 0 1.105 0 2-0.895 2-2 0-1.103-0.894-1.998-1.997-2h-0zM17.811 27.806c-0.12 0.119-0.286 0.193-0.469 0.193-0.368 0-0.667-0.299-0.667-0.667 0-0.001 0-0.002 0-0.003v0c0.002-0.365 0.298-0.661 0.663-0.663h0c0.367 0.002 0.663 0.3 0.663 0.667 0 0.185-0.075 0.352-0.196 0.473l-0 0h0.006z"></path>
</symbol>
<symbol id="icon-person" viewBox="0 0 40 40">
<path d="M20 20c3.683 0 6.667-2.983 6.667-6.667s-2.983-6.667-6.667-6.667c-3.683 0-6.667 2.983-6.667 6.667s2.983 6.667 6.667 6.667zM20 23.333c-4.45 0-13.333 2.233-13.333 6.667v1.667c0 0.917 0.75 1.667 1.667 1.667h23.333c0.917 0 1.667-0.75 1.667-1.667v-1.667c0-4.433-8.883-6.667-13.333-6.667z"></path>
</symbol>
<symbol id="icon-Vector-mail" viewBox="0 0 53 40">
<path d="M46.667 0h-40c-2.75 0-4.975 2.25-4.975 5l-0.025 30c0 2.75 2.25 5 5 5h40c2.75 0 5-2.25 5-5v-30c0-2.75-2.25-5-5-5zM45.667 10.625l-17.675 11.050c-0.8 0.5-1.85 0.5-2.65 0l-17.675-11.050c-0.625-0.4-1-1.075-1-1.8 0-1.675 1.825-2.675 3.25-1.8l16.75 10.475 16.75-10.475c1.425-0.875 3.25 0.125 3.25 1.8 0 0.725-0.375 1.4-1 1.8z"></path>
</symbol>
<symbol id="icon-Vector-phone" viewBox="0 0 40 40">
<path d="M36.081 27.277l-5.656-0.646c-1.358-0.156-2.694 0.312-3.652 1.269l-4.097 4.097c-6.302-3.206-11.468-8.35-14.674-14.674l4.119-4.119c0.957-0.957 1.425-2.294 1.269-3.652l-0.646-5.611c-0.267-2.249-2.16-3.941-4.431-3.941h-3.852c-2.516 0-4.609 2.093-4.453 4.609 1.18 19.016 16.389 34.202 35.382 35.382 2.516 0.156 4.609-1.937 4.609-4.453v-3.852c0.022-2.249-1.67-4.142-3.919-4.409z"></path>
</symbol>
<symbol id="icon-subscribe" viewBox="0 0 40 40">
<path d="M40 3.333l-40 18.75 12.783 3.945 19.717-15.404-14.997 16.861 0.012 0.004-0.015-0.004v9.181l7.169-6.969 9.081 2.803 6.25-29.167z"></path>
</symbol>
</defs>
</svg>
